/* XPM */
static char *etf[] = {
/* columns rows colors chars-per-pixel */
"32 32 172 2",
"   c #000000",
".  c #0B0505",
"X  c #0C0C0C",
"o  c #110C0C",
"O  c #1C0707",
"+  c #141313",
"@  c #1C1B1B",
"#  c #230909",
"$  c #280505",
"%  c #201212",
"&  c #2C1111",
"*  c #2C1D1D",
"=  c #320E0E",
"-  c #390707",
";  c #3C0E0E",
":  c #341616",
">  c #311E1E",
",  c #3B1616",
"<  c #3D1919",
"1  c #242424",
"2  c #2D2121",
"3  c gray17",
"4  c #342424",
"5  c #3E2424",
"6  c #3A2B2B",
"7  c #353535",
"8  c #383333",
"9  c gray24",
"0  c #410F0F",
"q  c #480D0D",
"w  c #431111",
"e  c #421C1C",
"r  c #4C1111",
"t  c #591616",
"y  c #5D1C1C",
"u  c #422121",
"i  c #452A2A",
"p  c #4A2323",
"a  c #4A2929",
"s  c #443535",
"d  c #413F3F",
"f  c #4A3131",
"g  c #493939",
"h  c #562020",
"j  c #532B2B",
"k  c #5C2323",
"l  c #5B2A2A",
"z  c #533333",
"x  c #5B3434",
"c  c #5A3939",
"v  c #610C0C",
"b  c #661313",
"n  c #611919",
"m  c #6D1515",
"M  c #6B1A1A",
"N  c #711616",
"B  c #741B1B",
"V  c #7A1313",
"C  c #7B1B1B",
"Z  c #622323",
"A  c #652B2B",
"S  c #6B2020",
"D  c #6B2C2C",
"F  c #623434",
"G  c #663838",
"H  c #6B3434",
"J  c #6B3A3A",
"K  c #722020",
"L  c #752929",
"P  c #792323",
"I  c #792A2A",
"U  c #773737",
"Y  c #733D3D",
"T  c #7E3333",
"R  c #7D3A3A",
"E  c #434141",
"W  c #484848",
"Q  c #544343",
"!  c #5B4545",
"~  c #5B4A4A",
"^  c #515151",
"/  c gray36",
"(  c #644343",
")  c #694545",
"_  c #6C4949",
"`  c #625252",
"'  c #605B5B",
"]  c #6C5858",
"[  c #734242",
"{  c #7D4B4B",
"}  c #7A5050",
"|  c #636060",
" . c #686868",
".. c #766767",
"X. c #736A6A",
"o. c gray45",
"O. c gray49",
"+. c #811C1C",
"@. c #852323",
"#. c #822F2F",
"$. c #882626",
"%. c #8C2B2B",
"&. c #833535",
"*. c #853838",
"=. c #8A3333",
"-. c #883939",
";. c #913232",
":. c #953A3A",
">. c #9A3F3F",
",. c #824242",
"<. c #8D4242",
"1. c #8C4E4E",
"2. c #855050",
"3. c #885151",
"4. c #8A5959",
"5. c #944B4B",
"6. c #9B4444",
"7. c #9E4A4A",
"8. c #915353",
"9. c #9D5353",
"0. c #8F6060",
"q. c #817F7F",
"w. c #976161",
"e. c #9C6262",
"r. c #927F7F",
"t. c #A24B4B",
"y. c #A55252",
"u. c #A55B5B",
"i. c #A85353",
"p. c #AC5959",
"a. c #B05E5E",
"s. c #A26565",
"d. c #AE6464",
"f. c #AE6D6D",
"g. c #A67D7D",
"h. c #B36565",
"j. c #B56A6A",
"k. c #BA6D6D",
"l. c #B27676",
"z. c #B57A7A",
"x. c #BE7272",
"c. c #B87F7F",
"v. c #C07575",
"b. c #C57D7D",
"n. c gray53",
"m. c #8E8686",
"M. c #888888",
"N. c #938383",
"B. c #988989",
"V. c #939292",
"C. c #9B9B9B",
"Z. c #A49D9D",
"A. c #BC8282",
"S. c #ADA3A3",
"D. c #A9A9A9",
"F. c gray70",
"G. c #B8B2B2",
"H. c #C28181",
"J. c #C88080",
"K. c #CD8C8C",
"L. c #D09A9A",
"P. c #C2BCBC",
"I. c #C2C0C0",
"U. c #D3D2D2",
"Y. c #DEDDDD",
"T. c #E0DFDF",
"R. c #E3E2E2",
"E. c #E8E7E7",
"W. c #EBEBEB",
"Q. c #F3F3F3",
"!. c #FBFBFB",
"~. c None",
/* pixels */
"~.~.~.~.~.~.~.~.~.~.!.!.!.Q.R.Y.W.!.!.!.!.~.~.~.~.~.~.~.~.~.~.~.",
"~.~.~.~.~.~.~.~.Q.Q.G...f : : < : i ] Z.W.Q.Q.~.~.~.~.~.~.~.~.~.",
"~.~.~.~.~.~.W.Q.Z.i , , , , , , , , , , u N.E.Q.~.~.~.~.~.~.~.~.",
"~.~.~.~.~.E.U.~ , , , , , e < , , e , e < < z P.E.~.~.~.~.~.~.~.",
"~.~.~.~.R.G.f < , , , : i c c x j i : < e , < e S.R.~.~.~.~.~.~.",
"A.K.K.K.L.A.l.z.l.l.z.A.A.H.A.b.b.c.c.l.l.l.l.l.c.L.K.K.K.K.! ~.",
"4.J.b.b.b.b.b.b.b.J.J.b.b.b.b.b.b.b.b.J.J.b.b.b.b.b.b.b.J.w.. ~.",
"  e.s.s.s.s.s.s.s.s.s.s.s.s.v.b.f.s.s.s.s.s.s.s.s.s.s.s.s.i ~.~.",
"~.+ B.c c c ( { 2.0.J D A r j.b.F k A D 2.2.2.c x c x m.Q   ~.~.",
"~.F.g.z.x.x.x.x.x.v.x.x.x.Z h.z.H u.v.x.x.x.x.x.x.x.x.k.s ~.~.~.",
"~.D.! h.k.k.k.k.k.k.x.k.k.k h.k.D u.k.k.k.k.k.k.k.x.k.) V.~.~.~.",
"~.C.< x j G G G l l A h.h.k d.j.D 9.j.1.l l F J c j j & N.C.~.~.",
"V.O.< j p [ -.&.v v b h.h.k u.j.A 9.j.Y v v n -.R u , , X.V.~.~.",
"n.X.p e j 8.9.<.&.&.-.a.p.n p.p.A 7.p.,.I P L <.<.c , , ] M.~.~.",
"O.| e e i 5.p.i.p.i.p.p.p.k y.p.A 7.p.p.p.p.i.p.p.p , , ` O.~.~.",
"o.| e < a U y.y.y.y.y.y.p.y t.y.Z 6.y.y.i.y.i.y.,.4 , , ` o.~.~.",
"~.' < , u H Z l h h k t.t.y 6.t.Z 6.t.R l l l l p a , , `  .~.~.",
"~./ 5 , , [ B I N N N t.6.n 6.t.Z :.6.D N N n B J , < u / | ~.~.",
"~.^ f < j ) P P B B C 6.6.n >.>.Z ;.>.D B m Z B c < , z ^ ~.~.~.",
"~.W E p j p H B 6.6.6.:.:.y :.:.y :.:.Z N k m L x j e c W ~.~.~.",
"~.~.9 f < , c K P ;.;.;.;.A :.;.Z :.;.Z k b N _ p l a d E ~.~.~.",
"~.~.7 8 p p < ( M Z S $.%.=.%.%.=.%.%.y v b ) < e j g 7 ~.~.~.~.",
"~.~.~.3 6 e , < _ Z v %.$.$.$.$.$.$.$.y M ( e < e z 3 ~.~.~.~.~.",
"~.~.~.1 1 6 e e F _ { $.@.t P @.n B @.y c p p , i 1 1 ~.~.~.~.~.",
"~.~.~.~.@ @ 4 j x G l @.C i $.C y &.+.; < < , 5 @ @ ~.~.~.~.~.~.",
"~.~.~.~.~.+ + 2 j z e +.0 , C C w B b & , u 2 + + ~.~.~.~.~.~.~.",
"~.~.~.~.~.~.~.X X 2 u b : e C V ; M : 5 > + X X ~.~.~.~.~.~.~.~.",
"~.~.~.~.~.~.~.~.. . o # * * N v + , X . . . ~.~.~.~.~.~.~.~.~.~.",
"~.~.~.~.~.~.~.~.~.~.-   .   N $ . .   ~.~.~.~.~.~.~.~.~.~.~.~.~.",
"~.~.~.~.~.~.~.~.~.~.~.~.~.~.q   ~.~.~.~.~.~.~.~.~.~.~.~.~.~.~.~.",
"~.~.~.~.~.~.~.~.~.~.~.~.~.~.O ~.~.~.~.~.~.~.~.~.~.~.~.~.~.~.~.~.",
"~.~.~.~.~.~.~.~.~.~.~.~.~.~.~.~.~.~.~.~.~.~.~.~.~.~.~.~.~.~.~.~."
};
